<?xml version="1.0" encoding="UTF-8" standalone="no"?>
<!-- Created with Inkscape (http://www.inkscape.org/) -->

<svg
   width="7.4656987mm"
   height="6.3777771mm"
   viewBox="0 0 7.4656987 6.3777771"
   version="1.1"
   id="svg5"
   inkscape:version="1.1.1 (3bf5ae0d25, 2021-09-20)"
   xmlns:inkscape="http://www.inkscape.org/namespaces/inkscape"
   xmlns:sodipodi="http://sodipodi.sourceforge.net/DTD/sodipodi-0.dtd"
   xmlns="http://www.w3.org/2000/svg"
   xmlns:svg="http://www.w3.org/2000/svg">
  <sodipodi:namedview
     id="namedview7"
     pagecolor="#ffffff"
     bordercolor="#666666"
     borderopacity="1.0"
     inkscape:pageshadow="2"
     inkscape:pageopacity="0.0"
     inkscape:pagecheckerboard="0"
     inkscape:document-units="mm"
     showgrid="false"
     fit-margin-top="0"
     fit-margin-left="0"
     fit-margin-right="0"
     fit-margin-bottom="0"
     inkscape:zoom="16.771208"
     inkscape:cx="20.243026"
     inkscape:cy="12.014639"
     inkscape:window-width="2560"
     inkscape:window-height="1017"
     inkscape:window-x="3832"
     inkscape:window-y="-8"
     inkscape:window-maximized="1"
     inkscape:current-layer="layer1" />
  <defs
     id="defs2" />
  <g
     inkscape:label="Calque 1"
     inkscape:groupmode="layer"
     id="layer1"
     transform="translate(-1.57874,-1.9528224)">
    <g
       id="g3472"
       transform="translate(0.45750534,-0.58371367)">
      <path
         style="fill:#ddb4f6;stroke-width:0.264583"
         d="M 1.1270455,8.0266399 1.1328563,7.1667442 1.6282296,6.0758724 2.123603,4.985001 3.0776193,4.2237892 4.0316356,3.4625777 l 7.9e-6,-0.4630208 7.7e-6,-0.4630208 H 4.2806196 4.529588 l 0.1588656,0.25705 0.1588656,0.25705 1.1534312,0.5102174 1.1534308,0.5102173 0.1868403,0.5886813 0.18684,0.5886815 L 7.1688188,5.5049434 6.8097761,5.7614532 7.2655804,5.615276 7.7213849,5.4690987 7.9785255,6.4502131 8.2356664,7.4313275 8.4112999,8.1589316 8.5869335,8.8865357 H 4.8540841 1.1212347 Z M 7.1228083,6.7202598 6.9838441,6.3729942 6.9629558,6.8801123 6.9420677,7.3872302 7.1019202,7.2273779 7.2617725,7.0675254 Z M 6.5936416,6.4556765 6.4546775,6.1084109 6.4337891,6.615529 6.4129011,7.1226468 6.5727536,6.9627946 6.7326058,6.8029421 Z"
         id="path3478" />
      <path
         style="fill:#b47abc;stroke-width:0.264583"
         d="M 1.1270455,8.0266399 1.1328563,7.1667442 1.6282296,6.0758724 2.123603,4.985001 3.0776193,4.2237892 4.0316356,3.4625777 l 7.9e-6,-0.4630208 7.7e-6,-0.4630208 H 4.2806196 4.529588 l 0.1704105,0.2757299 0.1704104,0.2757299 1.0664536,0.4267101 1.0664533,0.4267101 0.4027824,0.9512056 0.4027823,0.9512059 0.3572034,1.3229166 0.357203,1.3229165 0.00314,0.1984375 0.00314,0.1984375 H 4.8254012 1.1212347 Z M 7.1172962,6.7037233 6.9838441,6.3729942 V 7.0344525 7.6959108 L 7.1172962,7.3651816 7.2507483,7.0344525 Z m 0.5291667,0 L 7.5130107,6.3729942 V 7.0344525 7.6959108 L 7.6464629,7.3651816 7.779915,7.0344525 Z M 6.5881296,6.43914 6.4546775,6.1084109 V 6.7698692 7.4313275 L 6.5881296,7.1005983 6.7215817,6.7698692 Z M 7.38304,5.8438276 V 5.4469526 H 6.9978654 6.6126908 l 0.3293769,0.396875 0.3293769,0.3968749 h 0.055798 0.055798 z"
         id="path3476" />
      <path
         style="fill:#303030;stroke-width:0.264583"
         d="M 1.1212347,8.2165793 V 7.5466231 L 1.5321453,6.5629335 1.9430558,5.5792442 2.6566244,4.8288711 3.3701929,4.0784978 3.8357143,3.8260363 4.3012357,3.5735748 4.5707209,4.2823751 4.8402065,4.9911753 4.9846049,4.8467768 5.1290034,4.7023783 4.7126188,3.8971797 4.2962345,3.0919811 V 2.9055431 2.7191052 L 4.8254012,3.1979944 5.3545678,3.6768836 V 3.4967903 3.316697 l 0.7859066,0.406408 0.7859064,0.4064081 0.2724269,0.509034 0.2724267,0.509034 V 5.3255742 5.5035676 L 7.0522508,5.3427885 6.6332672,5.1820094 6.7545946,5.5129185 6.8759219,5.8438276 7.1932446,5.7711261 7.5105673,5.698425 7.3553699,5.9495394 7.2001724,6.2006541 7.6664325,6.3222781 8.1326926,6.4439017 7.5529951,6.4745939 6.9732975,6.5052859 6.8097761,6.2407025 6.6462546,5.9761192 H 6.3972862 6.1483178 V 6.4642786 6.9524383 L 6.6113386,7.3557955 7.0743594,7.7591526 7.4481169,7.8741661 7.8218745,7.9891797 7.8819653,8.3986055 7.9420564,8.8080312 6.1221198,8.8611722 4.3021832,8.914313 4.4598079,8.5035495 4.6174329,8.0927858 H 4.8228498 5.028267 L 5.1809231,7.5090277 5.3335795,6.9252695 5.2243812,6.8160715 5.1151829,6.7068732 4.684378,7.1376781 4.2535731,7.5684827 4.0456813,7.4399984 3.8377894,7.3115144 3.4044539,7.7903445 2.9711186,8.2691747 H 3.3574545 3.7437906 L 3.5822572,8.0078082 3.4207238,7.7464417 3.7670679,7.9604941 4.1134119,8.1745465 3.9518785,7.91318 3.7903451,7.6518135 H 4.1766812 4.5630173 L 4.1475464,8.1109036 3.7320754,8.5699938 3.3008936,8.50671 2.8697118,8.4434259 2.7753832,8.16044 2.6810546,7.8774541 3.0905306,6.8606408 3.5000067,5.8438276 3.0980228,6.3660994 2.6960389,6.888371 2.5362792,7.8874535 2.3765195,8.8865357 H 1.7488771 1.1212347 Z m 6.614583,0.0085 V 8.0927858 H 7.603526 7.4712344 V 8.2250774 8.3573691 H 7.603526 7.7358177 Z"
         id="path3474" />
    </g>
  </g>
</svg>
